<?xml version="1.0" encoding="UTF-8"?><svg xmlns="http://www.w3.org/2000/svg" viewBox="0 0 306.59 390.15"><defs><style>.d{fill:#2b4256;}</style></defs><g id="a"/><g id="b"><g id="c"><path class="d" d="M.22,55.7H111.41v250.04c0,15.46-12.65,28.51-28.1,28.25-15.02-.25-27.15-12.55-27.15-27.63v-83.11C56.15,192.25,31.01,167.11,0,167.11H0v138.19c0,46.12,36.83,84.39,82.95,84.84,46.57,.45,84.61-37.3,84.61-83.77v-83.56h59.94c12.92,0,23.4,10.47,23.4,23.4v143.72h0c30.76,0,55.7-24.94,55.7-55.7V55.7h0c0-30.76-24.94-55.7-55.7-55.7H55.93C25.16,0,.22,24.94,.22,55.7Zm227.27,111.41h-59.94V55.7h59.94c12.92,0,23.4,10.47,23.4,23.4v64.62c0,12.92-10.47,23.4-23.4,23.4Z"/></g></g></svg>