<?xml version="1.0" encoding="UTF-8"?><svg xmlns="http://www.w3.org/2000/svg" viewBox="0 0 282.95 451.95"><defs><style>.e{fill:#fff;}.f{fill:#455a64;}.g{fill:#e0e0e0;}.h{fill:#ff725e;}.i{isolation:isolate;}.i,.j{opacity:.3;}.k{fill:#263238;}</style></defs><g id="a"/><g id="b"><g id="c"><g id="d"><path class="k" d="M219.83,73.53c.95-.12,1.92,.02,2.8,.41,.08,0,.67,.31,.29,.12,.24,.12,.47,.25,.7,.4,.23,.15,.45,.3,.66,.47,.51,.38-.18-.25,.25,.22,.61,.6,1.09,1.32,1.4,2.11,.29,.79,.39,1.63,.31,2.46,0,.23,0,.45-.07,.68,.06-.45-.11,.4-.13,.49s-.14,.43-.22,.64-.29,.63-.1,.27c-.23,.47-.52,.9-.86,1.3,.28-.32-.14,.14-.21,.2s-.44,.38-.66,.57,.19-.07-.24,.17l-.57,.33c-.26,.13-.53,.25-.81,.36,.39-.14-.26,.08-.28,.08-.25,.07-.5,.12-.75,.17-.09,0-.81,.08-.39,.06-.51,.02-1.03,0-1.54-.07-1.26-.05-2.33,.94-2.38,2.2-.03,1.25,.94,2.31,2.19,2.38,5.66,.71,10.83-3.29,11.54-8.95,.45-3.53-.95-7.03-3.7-9.29-1.96-1.63-4.46-2.47-7-2.36-1.25-.01-2.3,.95-2.39,2.2-.04,1.26,.94,2.32,2.2,2.38h-.04Z"/><rect class="h" x="93.01" y="43.79" width="126.28" height="166.67" rx="19.38" ry="19.38" transform="translate(-1.54 1.92) rotate(-.7)"/><path class="k" d="M103.67,111.68c0-.17,0-.34,0-.51v-1.51c0-1.35,0-3.3-.05-5.8,0-5.06,0-12.35-.08-21.34v-14.73c-.06-1.39,.26-2.77,.92-4,.69-1.27,1.73-2.31,3-3,.65-.34,1.35-.57,2.08-.7,.72-.11,1.46-.15,2.19-.12h86.33c.74-.03,1.47,.01,2.2,.12,.72,.13,1.42,.36,2.07,.7,1.27,.68,2.32,1.73,3,3,.67,1.22,.98,2.61,.92,4v14.73c0,9-.07,16.28-.09,21.34,0,2.5,0,4.45-.05,5.8v2.02c0-.17,0-.34,0-.51v-1.51c0-1.35,0-3.3-.05-5.8,0-5.06-.05-12.34-.08-21.34v-14.73c.05-1.32-.25-2.62-.88-3.78-.67-1.18-1.67-2.14-2.87-2.76-.61-.32-1.26-.54-1.94-.65-.7-.11-1.41-.15-2.12-.11H111.84c-.7-.04-1.41,0-2.11,.1-.7,.12-1.37,.34-2,.66-1.2,.62-2.19,1.58-2.86,2.76-.63,1.16-.93,2.46-.88,3.78v14.73c0,9-.07,16.28-.09,21.34v7.31c-.21,.34-.23,.51-.23,.51Z"/><path class="i" d="M214.72,205.23c.29-.32-5-60.89-5-60.89l-12.92-3.36,4.18,57.76,7.08,10.33c2.52-.68,4.81-2,6.66-3.84Z"/><circle class="k" cx="195.32" cy="71.26" r="2.33"/><circle class="k" cx="195.32" cy="79.29" r="2.33"/><path class="g" d="M118.19,85.97s-13,3.71-16,5.48c-3,1.77-30.68,29.07-31.66,29.86-.7,.55-10.82-10.62-16.68-18.07l-7.56-4.23-17.36,13.41,.38,8.92c6.43,10.21,19.37,29.9,25.4,34.75,8,6.48,18.82,6.87,27.35,3.31,5.05-2.1,26.17-18.72,26.17-18.72l11.18-4.12-1.22-50.59Z"/><path class="k" d="M93.5,122.52c.48,.97,.9,1.97,1.24,3l2.76,7.35,2.83,7.31c.44,.97,.82,1.98,1.13,3-.58-.92-1.07-1.89-1.47-2.9-.83-1.84-1.89-4.41-3-7.28s-2-5.49-2.63-7.4c-.37-1-.66-2.03-.86-3.08Z"/><path class="k" d="M97.85,148.68c-.41-.32-.79-.69-1.13-1.09-.71-.72-1.68-1.81-2.83-3.21-5.99-7.32-10.42-15.79-13-24.89-.49-1.74-.83-3.17-1-4.16-.13-.51-.21-1.03-.24-1.55,.19,.49,.33,1,.44,1.51,.25,1,.64,2.38,1.17,4.09,1.38,4.48,3.16,8.83,5.32,13,2.17,4.15,4.72,8.1,7.6,11.79,1.1,1.42,2,2.55,2.69,3.31,.36,.38,.68,.78,.98,1.2Z"/><path class="k" d="M69.5,129.76c-.14-1.44-.1-2.88,.11-4.31,.04-1.45,.26-2.88,.64-4.28,.13,1.44,.09,2.89-.12,4.32-.04,1.44-.25,2.88-.63,4.27Z"/><path class="h" d="M71.98,119.98c-.66,.57,2.36,20.83,17.48,34.78l3.56-2.55s-17.08-16-18-35.21l-3.04,2.98Z"/><path class="k" d="M53.89,103.24c.09,.12-5.34,4.26-12.13,9.25s-12.37,9-12.45,8.84,5.35-4.26,12.14-9.26c6.79-5,12.36-8.94,12.44-8.83Z"/><path class="k" d="M35.17,130.16c.19-.29,.42-.56,.68-.8l2-2.08c1.73-1.75,4.14-4.16,6.89-6.86v.35l-1.08-1.35-1.51-1.86h.35c-3,2.1-5.68,3.94-7.61,5.24l-2.28,1.5c-.27,.2-.56,.37-.86,.5,.22-.25,.48-.47,.76-.65l2.19-1.63c1.87-1.37,4.5-3.26,7.5-5.38l.2-.14,.15,.18,1.51,1.86,1.07,1.31,.15,.18-.17,.17c-2.75,2.69-5.22,5-7,6.74l-2.12,2c-.24,.28-.52,.52-.82,.72Z"/><polygon class="h" points="29.22 119.38 52.05 102.21 46.33 99.01 28.93 112.42 29.22 119.38"/><path class="k" d="M44.91,78.55c-.46-.57-.93-1.13-1.42-1.67-.63,.65-1.17,1.38-1.62,2.17-1.41,2.25-2.54,4.67-3.37,7.19,0,0-6.08-9.54-7.23-11.72-1.17-2.26-2.48-4.45-3.92-6.55-2.89-.31-5.8,.03-8.54,1,2.6,4.22,7.55,11.56,6.53,12.57-.84,.83-5.69-6.3-10-10.84l-.53,.35c-1.64,1.2-3.07,2.67-4.23,4.34,3,3.39,6.52,7.32,6.41,8.13s-4-2.69-8-5.56c-.7,1.34-1.29,2.74-1.76,4.18-.29,.88-.53,1.78-.75,2.69,3.89,3.22,9.63,6.13,6.85,6-1.7-.07-4.77-1.57-7.52-2.7-.32,1.89-.55,3.8-.75,5.71,3.38,2.08,7.21,3.2,8.51,5.06,1.43,2,4.89,8.6,9.29,11s6.07,2.55,6.07,2.55l17.14-11.84s1.27-7.5,1.61-11.5c.29-2.29,.87-4.54,1.72-6.69-1.9-.52-3.24-2.3-4.49-3.87Z"/><path class="f" d="M8.99,77.91c-3.54-2.59-7.08-4.77-7.83-3.21-1.58,3.28,0,4,3.15,7.94,.66,.79,1.39,1.5,2.19,2.14,.22-.91,.46-1.81,.75-2.69,.46-1.44,1.05-2.84,1.74-4.18Z"/><path class="f" d="M27.35,67.97c-2.8-4-6.58-7.8-9.82-5.58,0,0-1.69,1.42,.46,5.17,.23,.39,.51,.86,.82,1.36,2.74-.95,5.66-1.27,8.54-.95Z"/><path class="f" d="M.27,87.56c-.84,2.71,.28,3.17,3.86,5.65,.3,.21,.61,.41,.93,.6,.2-1.91,.43-3.82,.75-5.71-2.72-1.12-5.12-1.89-5.54-.54Z"/><path class="f" d="M49.4,82.42c.75-2.2,1.29-4.06,.49-5.58-1.22-2.32-4-2.4-6.4,.06,.49,.54,1,1.1,1.42,1.67,1.25,1.55,2.59,3.33,4.49,3.85Z"/><path class="f" d="M14.78,71l.53-.35c-1.2-1.41-2.66-2.57-4.3-3.42-4.6-1.76-5.77,1.3-4.55,3.28,1.28,1.68,2.64,3.29,4.09,4.83,1.16-1.67,2.59-3.14,4.23-4.34Z"/><path class="f" d="M32.16,101.91s-.19-.2-.4-.66c-.29-.64-.49-1.31-.6-2-.15-1.04-.11-2.1,.12-3.13,.29-1.27,.87-2.45,1.71-3.45,1.26-1.51,3-2.54,4.93-2.91l-.17,.19c.08-1.35,.26-2.68,.54-4,.07,1.33,.03,2.67-.12,4v.16h-.16c-1.8,.42-3.42,1.42-4.61,2.84-1.43,1.73-2.1,3.97-1.86,6.2,.13,.94,.34,1.86,.62,2.76Z"/><path class="f" d="M28.65,82.72c0,.09-1.05,.34-2.66,1-2.09,.9-4.02,2.16-5.69,3.7-1.66,1.56-3.05,3.39-4.09,5.42-.8,1.56-1.11,2.62-1.2,2.59s0-.28,.14-.76c.18-.69,.43-1.36,.73-2,1.97-4.3,5.56-7.65,10-9.3,.65-.25,1.32-.45,2-.59,.25-.06,.51-.08,.77-.06Z"/><path class="k" d="M187.65,54.48c-.15,0-.26-4.81-.26-10.75s.11-10.76,.26-10.76,.26,4.82,.26,10.76-.12,10.75-.26,10.75Z"/><path class="g" d="M113.39,44.63S110.75,0,151.14,0s40,46.55,40,50.16c0,0,3.05,34-37.5,34.72-42.56,.79-40.25-40.25-40.25-40.25Z"/><path class="k" d="M116.26,43.23s-3.57-33.26,35.24-33.27c40.34,0,36.77,34.76,36.77,37.57,0,0,1.55,25.79-36,26.54s-36.01-30.84-36.01-30.84Z"/><polygon class="g" points="188.28 82.73 182.81 73.68 123.78 74.08 120.16 84.89 113.64 88.85 154.39 95.38 195.78 88.98 188.28 82.73"/><rect class="g" x="189.59" y="22.65" width="12.49" height="34.05" rx="6.03" ry="6.03"/><path class="k" d="M188.22,41c-.03-.1-.05-.2-.05-.3,0-.23,0-.53-.07-.9-.09-.79-.09-2-.31-3.44-.09-.75-.2-1.57-.31-2.48s-.36-1.87-.56-2.91-.54-2.13-.84-3.3l-.58-1.76c-.1-.3-.21-.61-.31-.92s-.25-.6-.38-.91c-2.28-5.87-6.23-10.93-11.37-14.57-6.38-4.33-13.88-6.69-21.59-6.79h-1.32c-1.96-.04-3.92,.16-5.84,.58-1.88,.37-3.73,.89-5.53,1.54-3.41,1.2-6.62,2.91-9.53,5.06-2.62,1.97-4.92,4.33-6.83,7-1.65,2.33-3,4.86-4,7.53-1.38,3.89-2.2,7.95-2.43,12.07-.13,1.45-.1,2.59-.12,3.36v.87c0,.1,0,.2,0,.3-.01-.1-.01-.2,0-.3v-.87c0-.77-.07-1.91,0-3.37,.15-4.15,.92-8.26,2.29-12.19,.99-2.71,2.33-5.28,4-7.64,1.91-2.71,4.24-5.1,6.89-7.1,2.9-2.17,6.1-3.9,9.51-5.14,1.83-.66,3.7-1.19,5.6-1.57,1.97-.43,3.98-.63,6-.59h1.36c7.81,.11,15.41,2.51,21.86,6.92,2.77,1.96,5.21,4.35,7.21,7.09,1.75,2.38,3.17,4.98,4.22,7.73l.38,.93,.3,.92c.2,.61,.39,1.21,.57,1.79,.3,1.17,.59,2.28,.82,3.33s.35,2,.51,2.94,.19,1.74,.27,2.49c.19,1.49,.16,2.67,.21,3.45v.9c0,.08-.01,.17-.03,.25Z"/><path class="f" d="M123.14,25.48c-4.39,7.41-5.09,16.62-3.25,25,9,1,18.18-3.45,24-10.44s8.39-18,8.32-27.11c-15.51-.02-24.71,5.14-29.07,12.55Z"/><path class="f" d="M159.72,13.69c7.53,10.73,4.69,30.73,4.69,30.73h7c3-17.07-2.75-29.09-2.75-29.09h0l-8.94-1.64Z"/><path class="f" d="M174.09,39.68c.55,0,.59,7.21-1.13,11.78h4.54c.63,0,2.32-7,1.59-11.78h-5Z"/><path class="k" d="M201.69,32.42c-1.99,.26-4,.35-6,.26-2,.09-4.01,0-6-.26,1.99-.25,4-.34,6-.26,2-.08,4.01,0,6,.26Z"/><path class="k" d="M198.21,39.68c0,1.31-1.07,2.38-2.38,2.38s-2.38-1.07-2.38-2.38,1.07-2.38,2.38-2.38,2.38,1.07,2.38,2.38h0Z"/><path class="k" d="M198.21,48.12c0,1.31-1.07,2.38-2.38,2.38s-2.38-1.07-2.38-2.38,1.07-2.38,2.38-2.38c1.31,0,2.37,1.05,2.38,2.36,0,0,0,.01,0,.02Z"/><rect class="g" x="102.47" y="22.65" width="12.49" height="34.05" rx="6.03" ry="6.03"/><path class="k" d="M114.57,32.42c-1.99,.26-4,.35-6,.26-2,.09-4.01,0-6-.26,1.99-.26,4-.34,6-.26,2-.08,4.01,0,6,.26Z"/><path class="k" d="M111.08,39.68c0,1.31-1.07,2.38-2.38,2.38s-2.38-1.07-2.38-2.38c0-1.31,1.07-2.38,2.38-2.38h0c1.31,0,2.37,1.07,2.37,2.38Z"/><path class="k" d="M111.08,48.12c0,1.31-1.07,2.38-2.38,2.38s-2.38-1.07-2.38-2.38c0-1.31,1.07-2.38,2.38-2.38h0c1.31,0,2.37,1.06,2.37,2.37h0Z"/><path class="k" d="M183.05,74.08c-.16,.14-.33,.27-.52,.37-.36,.23-.88,.57-1.57,1-1.37,.82-3.39,1.94-6,3.16-3.03,1.43-6.18,2.6-9.42,3.48-3.97,1.08-8.07,1.62-12.19,1.59-7.48-.12-14.87-1.73-21.72-4.73-2.07-.9-4.07-1.94-6-3.11-.7-.4-1.2-.76-1.55-1-.19-.1-.36-.23-.52-.38,.2,.08,.39,.18,.57,.29,.37,.2,.89,.53,1.6,.91,1.96,1.09,3.98,2.07,6.05,2.94,6.84,2.88,14.16,4.42,21.58,4.54,4.1,.03,8.18-.49,12.14-1.55,3.22-.85,6.35-1.97,9.38-3.35,2.6-1.16,4.64-2.23,6-3l1.61-.88c.18-.11,.36-.2,.56-.28Z"/><path class="k" d="M188.33,82.81c-.17,.19-.35,.36-.55,.52-.37,.32-.92,.79-1.65,1.38-2.04,1.68-4.19,3.23-6.43,4.64-3.35,2.08-7.02,3.6-10.86,4.51-4.7,1.1-9.51,1.63-14.34,1.56-2.49,0-4.99-.16-7.46-.47-2.31-.3-4.59-.78-6.82-1.42-3.78-1.07-7.44-2.53-10.93-4.35-2.35-1.22-4.62-2.57-6.8-4.06-.79-.52-1.36-1-1.76-1.25-.21-.13-.41-.29-.59-.47,.23,.11,.44,.24,.65,.39,.41,.26,1,.67,1.81,1.16,2.22,1.42,4.51,2.72,6.86,3.91,3.49,1.75,7.13,3.16,10.89,4.21,2.22,.61,4.48,1.08,6.76,1.38,2.45,.3,4.92,.45,7.39,.45,4.78,.07,9.55-.44,14.21-1.5,3.81-.87,7.45-2.35,10.79-4.37,2.25-1.37,4.42-2.87,6.51-4.48l1.71-1.3c.19-.16,.4-.31,.61-.44Z"/><g class="j"><path d="M124.5,75.48c12.78,15.6,35.78,17.89,51.38,5.12,1.98-1.62,3.79-3.45,5.39-5.46-17.1,10.58-38.65,10.84-56,.67"/></g><path class="f" d="M271.62,224.24c-1.97-.57-3.89-1.3-5.74-2.17-1.36-.57-2.72-1.11-4.1-1.62-1,2.59-2.24,5.76,.33,7.09,3.49,1.81,5.77,2.53,10.63-.2,1.46-.83,2.8-1.83,4-3-1.69,.37-3.44,.34-5.12-.1Z"/><path class="f" d="M257.87,219.11c-2.72-.86-5.47-1.59-8.25-2.19,.15,1.45,.26,2.51,.32,2.9,.33,2.14,1.45,5.35,4.24,5.48s3.86-2.09,3.69-6.19Z"/><polygon class="g" points="109.92 199.93 101.3 140.46 111.67 89.4 118.95 89.4 186.31 83.28 208.11 91.89 206.94 144.18 208.02 189.8 160.01 207.06 109.92 199.93"/><path class="k" d="M107.94,186.3s0-.07-.06-.23-.08-.41-.13-.68c-.11-.65-.26-1.53-.44-2.64-.38-2.34-.9-5.64-1.55-9.71-1.26-8.24-3-19.56-4.91-32.06-1-6.25-2-12.21-2.63-17.68-.57-4.84-.81-9.71-.72-14.58,.05-3.28,.33-6.56,.86-9.8,.16-1.15,.39-2,.51-2.63l.15-.68c.01-.08,.04-.16,.07-.23,.01,.08,.01,.16,0,.24,0,.19-.06,.41-.1,.69-.08,.6-.28,1.48-.41,2.64-.45,3.24-.68,6.51-.69,9.78-.02,4.85,.28,9.7,.88,14.52,.62,5.45,1.62,11.39,2.66,17.65,1.92,12.52,3.57,23.87,4.77,32.09,.57,4.07,1,7.39,1.38,9.73,.14,1.12,.26,2,.35,2.65,0,.28,0,.51,.07,.7,0,.08-.02,.16-.06,.23Z"/><g class="j"><path d="M194.69,182.72c-3.08,6.65-10.36,10.26-17.52,8.7-4.52-1-8.34-3.93-12-6.78l3.62-3.64,14.45,2.33,8.22-3.68,3.23,3.07Z"/></g><path class="k" d="M208.5,194.74c-.08,.03-.16,.05-.24,.06l-.72,.13-2.76,.46c-2.39,.39-5.87,.91-10.17,1.49-8.61,1.17-20.53,2.52-33.75,3.49s-25.21,1.34-33.9,1.43c-4.34,.05-7.85,0-10.28,0h-3.52c-.08,.01-.17,.01-.25,0,.08-.01,.17-.01,.25,0h3.52c2.43,0,5.94-.07,10.28-.17,8.67-.18,20.66-.62,33.86-1.58s25.13-2.26,33.74-3.34c4.31-.53,7.79-1,10.19-1.32l2.77-.36,.73-.08c.07-.09,.15-.16,.25-.21Z"/><path class="h" d="M207.18,153.49c-33.17-.84-73.1,.12-103.31,1.27l1.37,8.21,102.07-2.74-.13-6.74Z"/><path class="k" d="M183.29,149.82c.67-.05,1.33-.22,1.93-.52,1.19-.63,2.01-1.79,2.21-3.12,.04-.59,.04-1.18,0-1.77,0-5.07-.05-12.38-.08-21.4v-7.09c-.02-1.89-1.34-3.51-3.18-3.92-.63-.11-1.28-.14-1.92-.1h-55.88c-1.66,0-3.16,1.02-3.75,2.57-.26,.78-.35,1.6-.28,2.41v29.02c.17,2.21,2.09,3.88,4.31,3.73h27.32l21.41,.08h5.82l-5.82,.05-21.41,.08h-27.26c-1.58,.09-3.09-.65-4-1.95-.45-.66-.72-1.42-.78-2.22v-28.75c-.07-.88,.04-1.76,.32-2.6,.68-1.74,2.36-2.9,4.23-2.9h55.88c.67-.04,1.34,0,2,.12,2.02,.47,3.45,2.25,3.48,4.32v7.1c0,9-.06,16.33-.08,21.4,.02,.6,0,1.2-.07,1.8-.09,.53-.27,1.04-.54,1.5-.42,.72-1.04,1.31-1.79,1.68-.46,.23-.95,.37-1.46,.42-.2,.04-.41,.06-.61,.06Z"/><path class="k" d="M122.93,111.64c.45-7-7.44-11.37-12.09-15.07-2.7-2.15-5-4.21-6.31-7.32-.84-2-1.6-4.6-.7-6.75,.77-1.65,2.24-2.87,4-3.33,1.89-.47,3.88-.45,5.76,.08,2.16,.4,4.25,1.14,6.18,2.2,2.79,1.62,5.31-2.7,2.53-4.32-1.98-1.1-4.09-1.92-6.29-2.45-2.17-.63-4.44-.91-6.7-.83-5.42,.42-10.16,4.13-10.76,9.71-.5,4.7,1.84,9.76,5,13.14,2.61,2.79,5.92,5,8.84,7.29,1.59,1.17,3.03,2.51,4.32,4-.27-.34,.22,.31,.21,.3l.4,.62c.1,.18,.5,1.05,.35,.67,.14,.35,.24,.72,.31,1.09-.1-.5,0,0,0,.12,.01,.27,.01,.54,0,.81-.2,3.21,4.8,3.2,5,0l-.05,.04Z"/><polygon class="f" points="114.2 108.69 126.67 108.69 126.54 120.08 114.76 120.08 114.2 108.69"/><circle class="k" cx="141.02" cy="177.3" r="7.44"/><circle class="k" cx="165.84" cy="177.31" r="7.44"/><circle class="k" cx="192.17" cy="177.31" r="7.44"/><path class="g" d="M161.96,179.99c8.2,11.22,24.67,12.9,33.66,1.45,3.9-5-3.08-12-7-7-4.62,5.89-13.28,7.11-18.07,.56-3.73-5.11-12.34-.16-8.57,5h-.02Z"/><path class="k" d="M161.96,179.99c-.06-.06-.1-.12-.14-.19l-.38-.59c-.17-.34-.31-.69-.41-1.06-.1-.51-.1-1.04,0-1.55,.33-1.42,1.29-2.61,2.61-3.23,.79-.42,1.67-.66,2.57-.69,1.02-.03,2.02,.23,2.9,.74,.89,.64,1.66,1.43,2.3,2.32,.38,.41,.78,.8,1.21,1.17,.46,.37,.94,.71,1.45,1,2.23,1.24,4.84,1.58,7.31,.95,2.73-.68,5.16-2.24,6.91-4.45,.24-.27,.53-.56,.79-.84,.32-.25,.65-.48,1-.68,.74-.36,1.56-.48,2.37-.35,3.13,.69,5.11,3.78,4.42,6.91-.04,.2-.1,.39-.16,.58-.68,1.38-1.61,2.63-2.74,3.68-2.07,2.02-4.55,3.58-7.27,4.57-2.46,.89-5.08,1.28-7.7,1.14-2.27-.09-4.51-.55-6.63-1.35-3.08-1.13-5.87-2.96-8.14-5.33-.63-.62-1.21-1.29-1.73-2l-.41-.55c-.05-.06-.1-.12-.13-.19,0,0,.06,.05,.17,.16l.46,.52c.55,.69,1.15,1.34,1.79,1.94,2.29,2.29,5.07,4.04,8.12,5.12,2.09,.77,4.29,1.2,6.52,1.27,2.55,.1,5.1-.3,7.49-1.19,2.65-.98,5.06-2.5,7.07-4.48,.94-1.1,2.13-2.13,2.61-3.5,.9-2.78-.62-5.77-3.41-6.68-.15-.05-.29-.09-.44-.12-.68-.1-1.38,0-2,.29-.3,.18-.59,.38-.86,.61-.25,.27-.5,.5-.74,.78-1.82,2.29-4.35,3.91-7.2,4.6-2.58,.66-5.31,.3-7.64-1-.52-.3-1.02-.63-1.5-1-.42-.43-.88-.79-1.24-1.24-.61-.86-1.35-1.63-2.19-2.27-.82-.48-1.75-.73-2.7-.72-.85,.02-1.69,.23-2.45,.62-1.26,.56-2.2,1.67-2.55,3-.09,.49-.09,.99,0,1.48,.08,.36,.2,.71,.35,1.05l.32,.6c0,.07,.03,.14,.02,.15Z"/><path class="k" d="M134.14,138.62c0,1.02-.82,1.84-1.84,1.84s-1.84-.82-1.84-1.84c0-1.02,.82-1.84,1.84-1.84h0c1.01,0,1.83,.83,1.83,1.84Z"/><path class="k" d="M140.44,138.62c0,1.02-.82,1.84-1.84,1.84-1.02,0-1.84-.82-1.84-1.84,0-1.02,.82-1.84,1.84-1.84h0c1.01,0,1.83,.83,1.84,1.84Z"/><path class="k" d="M146.5,138.62c0,1.02-.82,1.84-1.84,1.84-1.02,0-1.84-.82-1.84-1.84,0-1.02,.82-1.84,1.84-1.84h0c1.01,0,1.83,.83,1.84,1.84Z"/><path class="k" d="M152.6,138.62c0,1.02-.82,1.84-1.84,1.84-1.02,0-1.84-.82-1.84-1.84,0-1.02,.82-1.84,1.84-1.84h0c1.01,0,1.83,.83,1.84,1.84Z"/><path class="e" d="M149.89,126.94h-16.72c-1.22,0-2.21-.99-2.21-2.21h0c0-1.22,.99-2.21,2.21-2.21h16.72c1.22,0,2.21,.99,2.21,2.21h0c0,1.22-.99,2.21-2.21,2.21h0Z"/><path class="h" d="M134.5,131.6c0,1.02-.82,1.84-1.84,1.84-1.02,0-1.84-.82-1.84-1.84,0-1.02,.82-1.84,1.84-1.84h0c1.02,0,1.84,.82,1.84,1.84Z"/><path class="e" d="M140.76,131.6c0,1.02-.82,1.84-1.84,1.84-1.02,0-1.84-.82-1.84-1.84,0-1.02,.82-1.84,1.84-1.84h0c1.02,0,1.84,.82,1.84,1.84Z"/><path class="h" d="M146.84,131.6c0,1.02-.82,1.84-1.84,1.84-1.02,0-1.84-.82-1.84-1.84,0-1.02,.82-1.84,1.84-1.84h0c1.02,0,1.84,.82,1.84,1.84Z"/><path class="e" d="M152.92,131.6c0,1.02-.82,1.84-1.84,1.84-1.02,0-1.84-.82-1.84-1.84,0-1.02,.82-1.84,1.84-1.84h0c1.02,0,1.84,.82,1.84,1.84Z"/><rect class="f" x="164.82" y="121.09" width="13.5" height="13.5" rx="1.66" ry="1.66"/><path class="k" d="M177.55,140.98h-12c-1.04,0-1.88-.84-1.88-1.88h0c0-1.04,.84-1.88,1.88-1.88h12c1.04,0,1.88,.84,1.89,1.88h0c0,1.04-.85,1.88-1.89,1.88Z"/><path class="i" d="M125.5,149.79s.32,1.16,4,1.76,49.15,.5,51.84,0c1.56-.26,3-1,4.13-2.11l-59.97,.35Z"/><path class="g" d="M267.82,173.9c-2.4-5.64-16.66-29.46-21-36.44s-17-20.46-17-20.46l-12.1-16c-2.68-3.54-5.91-6.63-9.56-9.15h0l-8.49,27.8,3.11,23.61,14.65,7.84,9,14.27,17.79,27.64c1.05,.71,2.18,1.31,3.36,1.78l21.64-13.37s.9-2.13-1.4-7.52Z"/><path class="k" d="M234.55,131.42c-.04,.34-.12,.68-.24,1-.11,.4-.24,.79-.4,1.17-.19,.51-.41,1.01-.65,1.5-.62,1.28-1.34,2.51-2.15,3.68-1,1.42-2.1,2.78-3.28,4.06-2.16,2.3-4.55,4.37-7.12,6.2-1,.71-1.81,1.23-2.4,1.58-.29,.2-.6,.36-.93,.48,0-.07,1.2-.89,3.11-2.35,2.5-1.89,4.84-3.99,7-6.27,1.17-1.27,2.26-2.6,3.27-4,.81-1.14,1.55-2.33,2.21-3.57,1.07-2.04,1.53-3.48,1.58-3.48Z"/><path class="k" d="M214.12,125.42c.08,0-.4,1.11-1,2.91s-1.31,4.3-2.07,7.1c-.61,2.4-1.35,4.76-2.21,7.08-.35,.89-.67,1.6-.91,2.07s-.4,.73-.43,.71,.39-1.11,1-2.9,1.31-4.31,2.06-7.1c.62-2.4,1.36-4.77,2.22-7.09,.26-.71,.57-1.4,.91-2.07,.11-.26,.25-.49,.43-.71Z"/><path class="k" d="M209.11,96.84c.01,.08,.01,.16,0,.24,0,.19,0,.42-.06,.7-.06,.66-.14,1.56-.25,2.7s-.17,2.62-.28,4.28-.16,3.57-.25,5.67c-.31,8.4-.48,20-.5,32.86s.08,24.47,.17,32.89c0,4.17,.08,7.56,.1,10v3.42c.01,.08,.01,.16,0,.24-.01-.08-.01-.16,0-.24v-.71c0-.66-.07-1.56-.11-2.7-.07-2.4-.16-5.8-.27-10-.18-8.41-.33-20-.32-32.89s.25-24.47,.65-32.88c.12-2.1,.23-4,.33-5.67s.27-3.09,.37-4.28,.27-2,.35-2.69c0-.28,.08-.51,.11-.7-.03-.08-.04-.16-.04-.24Z"/><path class="h" d="M256.96,178.22c-.63,.21-11.21,4.61-12.76,14.83,1.2,.82,2.48,1.49,3.84,2l21.18-13.63c.25-1.2,.22-2.44-.1-3.62,0,0-1.43-3.02-12.16,.42Z"/><path class="k" d="M247.67,196.13s1.94,21.55,2.27,23.69,1.45,5.35,4.24,5.48c3.15,.15,4.06-2.59,3.59-7.56s-.5-8.13,.44-7.5,4.67,5.22,4.33,7.73-3.93,7.76-.43,9.57,5.77,2.53,10.63-.2c2.8-1.51,5.16-3.74,6.83-6.45,0,0,4-8.35,3.3-11.69-.27-1.26-8.35-17.44-8.35-17.44l-5.64-9.56s-2.49-4.87-12.2,.37c-10.26,5.53-9.26,10.96-9.01,13.56Z"/><path class="h" d="M211.74,148.12c7.13-9.47,13.53-19.46,19.15-29.9l3.16,3.46c-5.12,10.18-11.55,19.64-19.14,28.14l-3.17-1.7Z"/><path class="k" d="M264.22,166.96s-.37,0-1,.07c-.94,.09-1.87,.26-2.78,.51-3.06,.88-6.05,2-8.94,3.35l-.2,.09-.12-.17-1.18-1.62-.93-1.28-.13-.18,.16-.16c1.36-1.28,2.98-2.25,4.75-2.86,1.4-.5,2.84-.87,4.3-1.11,.98-.17,1.96-.28,2.95-.34,.36-.05,.72-.05,1.08,0-.35,.09-.7,.14-1.06,.17-.69,.1-1.68,.24-2.9,.49-1.44,.28-2.84,.69-4.21,1.21-1.69,.61-3.24,1.56-4.54,2.79v-.34l.93,1.28c.4,.56,.8,1.1,1.18,1.62l-.32-.08c2.91-1.36,5.96-2.44,9.08-3.21,.93-.23,1.89-.35,2.85-.37,.26,0,.52,.01,.78,.06,.16,.04,.25,.06,.25,.08Z"/><path class="k" d="M268.43,175.42c-1.63-.22-3.27-.34-4.92-.37-1.77,.03-3.53,.29-5.24,.77-2.09,.61-4.08,1.51-5.91,2.68-3.34,2.13-6.09,5.07-8,8.54-.75,1.46-1.42,2.96-2,4.5,.05-.44,.15-.88,.3-1.3,.36-1.16,.82-2.3,1.38-3.38,2.91-5.63,8.02-9.79,14.12-11.5,2.94-.8,6.02-.9,9-.29,.44,.06,.86,.18,1.27,.35Z"/><path class="f" d="M269.55,207.99c.21,.22,.38,.48,.51,.75,.4,.71,.76,1.45,1.05,2.22,.45,1.14,.75,2.33,.91,3.54,.19,1.51,.07,3.03-.36,4.49-.48,1.43-1.17,2.78-2.05,4-.7,.99-1.46,1.94-2.27,2.84-.54,.61-1.12,1.2-1.72,1.75-.42,.39-.68,.59-.7,.56s.84-1,2.14-2.55c.65-.79,1.4-1.76,2.15-2.87,.85-1.19,1.53-2.5,2-3.88,.67-2.56,.53-5.27-.39-7.75-.71-1.94-1.32-3.05-1.27-3.1Z"/><path class="f" d="M278.38,209.03c.15,.21,.26,.44,.33,.69,.25,.65,.45,1.32,.57,2,.21,1.01,.31,2.04,.3,3.07-.01,1.27-.16,2.53-.45,3.76-.31,1.23-.74,2.42-1.3,3.55-.47,.92-1.02,1.79-1.66,2.6-.42,.55-.9,1.06-1.42,1.52-.37,.32-.58,.49-.61,.46s.73-.8,1.73-2.2c.59-.82,1.1-1.68,1.53-2.59,.51-1.12,.92-2.28,1.22-3.47,.28-1.19,.44-2.41,.48-3.64,.03-1-.03-2.01-.18-3-.26-1.7-.63-2.71-.54-2.75Z"/><path class="f" d="M270.13,203.86c.12-.07,.51,.54,.39,1.38s-.68,1.3-.77,1.2,.16-.6,.25-1.28-.01-1.24,.13-1.3Z"/><path class="f" d="M278.28,205.02c.11-.09,.53,.29,.65,1s-.14,1.16-.27,1.12-.14-.5-.24-1-.26-1.04-.14-1.12Z"/><path class="g" d="M122.55,373.23l15.88,37.32-7.46,28.42c-.85,6.1,3.28,11.77,9.34,12.84,.49,.11,1,.16,1.5,.14h0c1.49-.13,5.42-2.72,6.22-3.9,9-13.18,21.54-30.37,19.72-36.38-1-3.43-9.13-44.28-9.13-44.28l-36.07,5.84Z"/><path class="k" d="M149.99,393.26c.13,.17,.23,.35,.32,.54,.19,.37,.45,.91,.78,1.61,.94,1.96,1.78,3.96,2.52,6,1.13,3.04,1.74,6.25,1.81,9.49,0,1.93-.28,3.84-.85,5.68-.64,1.96-1.41,3.88-2.32,5.73-1.88,3.77-2.94,7.62-4.6,10.94-1.38,3.1-3.78,5.64-6.81,7.19-2.17,1-4.63,1.14-6.9,.4-.6-.21-1.16-.5-1.67-.87-.18-.12-.34-.26-.48-.43,.71,.43,1.46,.79,2.24,1.06,2.19,.62,4.54,.42,6.59-.57,2.87-1.55,5.14-4.01,6.45-7,1.58-3.24,2.65-7.15,4.54-10.95,.89-1.83,1.67-3.72,2.31-5.65,.56-1.78,.85-3.63,.86-5.5-.05-3.18-.6-6.34-1.64-9.35-.85-2.6-1.73-4.66-2.3-6.09-.34-.72-.62-1.47-.85-2.23Z"/><path class="k" d="M150.76,411.52c-.07,.18-2.79-.59-6.25-.89s-6.3-.06-6.32-.25,2.82-.73,6.38-.4,6.26,1.44,6.19,1.54Z"/><path class="k" d="M146.44,420.07c-.1,.17-2.29-.88-5.2-1.54s-5.37-.71-5.37-.9,2.52-.43,5.53,.27,5.1,2.03,5.04,2.17Z"/><path class="k" d="M145.1,429.42c-.13,.15-2.1-1.23-4.85-2.34s-5.18-1.55-5.14-1.74,2.56,0,5.42,1.14,4.69,2.81,4.57,2.94Z"/><path class="k" d="M132.5,446.09c.64,.35,1.31,.63,2,.85,1.93,.5,3.97,.39,5.84-.32,2.66-1.12,4.99-2.92,6.75-5.21,2.07-2.48,4.22-5.33,6.34-8.38,3.58-5.22,6.76-10.7,9.49-16.41,1-2.18,1.83-4,2.38-5.21,.24-.66,.54-1.3,.89-1.91-.16,.68-.38,1.35-.64,2-.47,1.26-1.18,3.09-2.18,5.3-2.6,5.81-5.72,11.37-9.31,16.62-2.14,3.08-4.3,5.92-6.43,8.41-1.85,2.35-4.29,4.17-7.08,5.26-1.96,.71-4.11,.75-6.1,.13-.52-.17-1.02-.41-1.48-.72-.3-.26-.47-.39-.47-.41Z"/><path class="k" d="M164.16,413.12c-.32-1-.54-2.03-.67-3.07-.36-1.9-.9-4.51-1.66-7.36s-1.58-5.4-2.2-7.23c-.4-.97-.72-1.97-.94-3,.58,.89,1.05,1.85,1.4,2.85,1.92,4.71,3.23,9.64,3.89,14.68,.2,1.03,.26,2.08,.18,3.13Z"/><path class="g" d="M239.77,354.6l-8.52,39.54,12.83,26.85c2.04,5.8-.98,12.16-6.77,14.24-.46,.2-.95,.33-1.45,.39h0c-1.5,.12-5.88-1.79-6.9-2.82-11.41-11.53-27.12-26.38-26.46-32.67,.37-3.56,.52-45.29,.52-45.29l36.75-.24Z"/><path class="k" d="M216.5,378.98s0,.21-.07,.61-.21,1.05-.34,1.74c-.29,1.51-.76,3.69-1.1,6.4-.46,3.16-.4,6.38,.17,9.52,.37,1.85,1.02,3.63,1.91,5.29,1.01,1.8,2.13,3.54,3.36,5.2,2.6,3.44,4.41,7.12,6.6,10.07,1.86,2.75,4.58,4.82,7.73,5.87,2.2,.63,4.55,.44,6.62-.54,.73-.38,1.4-.86,2-1.42,0,0-.1,.19-.38,.51-.44,.45-.94,.83-1.49,1.13-2.12,1.12-4.58,1.39-6.89,.76-3.3-1.04-6.16-3.15-8.12-6-2.28-3-4.07-6.63-6.65-10.05-1.24-1.68-2.38-3.44-3.39-5.27-.91-1.72-1.56-3.56-1.93-5.47-.55-3.21-.55-6.48,0-9.69,.33-2.15,.77-4.28,1.32-6.39,.2-.75,.35-1.33,.47-1.72,.04-.19,.1-.38,.18-.55Z"/><path class="k" d="M219.25,397.14c-.1-.13,2.36-1.64,5.82-2.54s6.39-.84,6.38-.68-2.84,.41-6.19,1.3-5.91,2.1-6.01,1.92Z"/><path class="k" d="M225.16,404.88c-.13-.12,1.71-1.79,4.56-3s5.41-1.36,5.42-1.19-2.39,.63-5.13,1.78-4.72,2.56-4.85,2.41Z"/><path class="k" d="M228.28,413.88c-.15-.09,1.35-2,4-3.67s5.1-2.19,5.14-2-2.25,1-4.75,2.57-4.24,3.23-4.39,3.1Z"/><path class="k" d="M243.9,428.29s-.11,.16-.36,.43c-.4,.39-.84,.73-1.33,1-1.85,.94-3.96,1.25-6,.89-2.97-.62-5.73-2-8-4-2.79-2.28-5.46-4.69-8-7.24-4.57-4.57-8.73-9.53-12.43-14.83-1.42-2-2.47-3.7-3.18-4.87-.38-.59-.72-1.22-1-1.87,.46,.55,.88,1.13,1.25,1.74,.78,1.13,1.89,2.77,3.35,4.75,3.8,5.19,7.99,10.09,12.53,14.64,2.68,2.67,5.35,5.12,7.87,7.23,2.18,1.96,4.82,3.34,7.68,4,1.96,.39,4,.16,5.83-.66,.63-.35,1.23-.76,1.79-1.21Z"/><path class="k" d="M206.31,400.96c-.28-1.02-.42-2.07-.42-3.13-.32-5.07,.02-10.16,1-15.15,.15-1.05,.43-2.08,.83-3.06-.02,1.05-.14,2.1-.35,3.13-.26,1.92-.59,4.57-.79,7.52s-.23,5.61-.22,7.55c.08,1.05,.06,2.1-.05,3.14Z"/><path class="f" d="M219.88,220.76s7.64-.71,10.41,2.59c2.77,3.3,13.44,19.95,11.88,21.51s-4.63,5.29-4.63,5.29l-17.66-29.39Z"/><path class="g" d="M160.65,350.01c.08-.63-6.22-24.26-6.22-24.26l-.58-28.74,1.56-18.87s5.12-2.2,1-7.8l2.21-9.81-50.23-61.89s-2.57,16.62-3.84,35.86c-.29,4.5-5.61,27.34-4.1,42.07s8.53,41.64,8.83,46.38,8.66,33.64,12.89,43.42c5,11.6,12.85,35.37,12.85,35.37l31.68-7.48s-6.13-43.62-6.05-44.25Z"/><path class="g" d="M221.5,222.24c1.3,.58,26,39.57,28.8,49.95s-.42,36.34-1.29,41.16-13.53,65.44-14,67.1-19.73,8.89-33.1,.52l-1.7-23s-2.28-24.95-1.82-32l.47-7,.22-24.37-5.6-14.4c-1.67-1.62-2.35-3.33-2-5.14l-3.56-9.13-12.38-8.91s-1.72-11.33,8.76-26.39,30.31-21,30.31-21l6.89,12.61Z"/><path class="k" d="M104.74,301.3c.54-.37,1.13-.67,1.76-.88,1.68-.65,3.41-1.17,5.17-1.56,5.86-1.23,11.85-1.72,17.83-1.44,1.75,.1,3.45,.14,5.1,.34,1.58,.17,3.15,.42,4.71,.75,2.61,.57,5.18,1.32,7.69,2.24,1.69,.61,3.34,1.31,4.95,2.09,.6,.25,1.17,.57,1.7,.95-.62-.2-1.23-.45-1.82-.73-1.17-.48-2.86-1.16-5-1.88-2.51-.85-5.07-1.55-7.66-2.09-3.2-.6-6.44-.93-9.7-1-5.92-.28-11.85,.13-17.68,1.21-1.75,.34-3.48,.79-5.18,1.35-1.21,.4-1.85,.69-1.87,.65Z"/><path class="h" d="M106.09,307.31c8.14-2.83,16.75-4.03,25.35-3.55,7.69,.51,15.29,1.96,22.63,4.31l.08,3.75s-15.38-3.16-22.15-3.52c-8.42-.44-25.06,2.93-25.06,2.93l-.85-3.92Z"/><path class="k" d="M191.22,275.08c.32-.64,.7-1.25,1.12-1.83,.45-.7,.95-1.36,1.48-2,.67-.9,1.38-1.76,2.14-2.59,.9-1.03,1.86-2.01,2.86-2.94,1.05-1.05,2.29-2,3.58-3.11,2.89-2.24,5.98-4.21,9.22-5.9,3.31-1.65,6.77-3.01,10.32-4.05,1.66-.43,3.23-.88,4.74-1.13s2.91-.5,4.2-.66,2.47-.21,3.49-.28c.88-.07,1.77-.09,2.65-.06,.75-.02,1.5,.01,2.25,.11-.74,.1-1.49,.15-2.24,.14-.73,0-1.61,.05-2.63,.17s-2.19,.15-3.45,.38-2.67,.38-4.15,.73-3,.73-4.67,1.17c-3.5,1.06-6.9,2.42-10.17,4.05-3.21,1.66-6.27,3.6-9.15,5.79-1.28,1.05-2.53,2-3.58,3s-2,1.95-2.89,2.86-1.57,1.76-2.21,2.5-1.16,1.42-1.57,2c-.4,.59-.85,1.14-1.34,1.65Z"/><path class="k" d="M193.87,280.47c.32-.64,.7-1.25,1.12-1.83,.45-.7,.95-1.36,1.48-2,.67-.9,1.39-1.76,2.15-2.59,.9-1.03,1.86-2.01,2.86-2.94,1-1,2.28-2,3.57-3.11,2.89-2.25,5.98-4.22,9.23-5.9,3.31-1.65,6.76-3.01,10.31-4.05,1.66-.44,3.23-.88,4.74-1.13s2.91-.51,4.2-.66,2.47-.22,3.5-.29c.88-.06,1.76-.08,2.64-.05,.76-.02,1.51,.01,2.26,.11-.75,.1-1.5,.14-2.25,.14-.72,0-1.61,.05-2.63,.17s-2.18,.15-3.45,.38-2.67,.38-4.15,.73-3,.72-4.67,1.17c-3.5,1.05-6.9,2.39-10.17,4-3.2,1.67-6.25,3.61-9.11,5.8-1.28,1.05-2.53,2-3.58,3s-2,2-2.89,2.86-1.57,1.76-2.21,2.5c-.55,.64-1.07,1.31-1.56,2-.42,.6-.88,1.16-1.39,1.69Z"/><polygon class="g" points="210.4 196.82 172.03 192 108.42 198.64 109.13 223.68 107.7 225.06 159 261.79 164.3 257.37 175.57 257.01 215.38 211.49 210.4 196.82"/><path class="k" d="M217.15,215.19c-.78,.23-1.58,.42-2.38,.56-2.15,.49-4.27,1.11-6.35,1.86-6.75,2.41-12.89,6.25-18,11.28-6.43,6.42-10.74,14.65-12.37,23.59-.1,.76-.25,1.51-.44,2.25-.03-.2-.03-.39,0-.59,0-.39,.06-1,.17-1.69,.27-2.08,.72-4.13,1.34-6.13,2.07-6.76,5.76-12.9,10.75-17.9,5.19-5.11,11.47-8.96,18.38-11.27,2.11-.72,4.28-1.28,6.47-1.68,.77-.15,1.39-.21,1.8-.27,.21-.03,.42-.04,.63,0Z"/><path class="k" d="M161.94,259.3c-.15-.14-.28-.3-.39-.48l-1-1.44c-.41-.63-.94-1.4-1.61-2.25s-1.37-1.86-2.29-2.88-1.85-2.18-3-3.32-2.38-2.34-3.71-3.58c-2.99-2.62-6.19-4.99-9.57-7.09-3.44-2.08-7.04-3.88-10.77-5.4-1.74-.65-3.39-1.31-5-1.77s-3.08-.92-4.46-1.26-2.64-.59-3.74-.82-2.07-.39-2.86-.49l-1.81-.29c-.42-.08-.64-.12-.63-.15,.21-.02,.43-.02,.64,0l1.84,.17c.97,.07,1.93,.2,2.89,.38,1.12,.21,2.41,.38,3.79,.74s2.92,.67,4.52,1.19,3.29,1.08,5.06,1.73c3.78,1.49,7.43,3.3,10.91,5.41,3.41,2.12,6.62,4.53,9.62,7.2,1.34,1.26,2.63,2.43,3.71,3.65s2.09,2.33,2.95,3.4,1.58,2.08,2.22,3c.55,.74,1.06,1.52,1.52,2.32,.36,.6,.65,1.1,.89,1.51,.12,.16,.21,.33,.28,.52Z"/><path class="k" d="M100.76,264.83c.66-.39,1.35-.72,2.06-1,.81-.38,1.65-.72,2.5-1,1-.35,2.11-.8,3.41-1.13l2-.56c.7-.19,1.45-.32,2.22-.49,1.54-.36,3.21-.56,5-.8,7.67-.89,15.44-.24,22.86,1.92,1.68,.53,3.29,1,4.73,1.62,.72,.3,1.44,.54,2.1,.85l1.87,.89c1.07,.51,2.12,1.07,3.14,1.68,.79,.43,1.54,.9,2.27,1.42,.64,.4,1.25,.85,1.83,1.33-.7-.32-1.37-.69-2-1.12-.75-.48-1.52-.92-2.31-1.32-.93-.47-1.94-1.08-3.16-1.58l-1.88-.85c-.65-.29-1.37-.52-2.09-.8-1.43-.59-3-1-4.7-1.55-3.66-.99-7.41-1.66-11.19-2-3.8-.29-7.62-.25-11.41,.12-1.73,.23-3.4,.4-4.92,.74-.76,.16-1.51,.27-2.21,.44l-2,.52c-1.29,.3-2.41,.72-3.41,1-.86,.26-1.7,.56-2.53,.91-.71,.31-1.44,.56-2.18,.76Z"/><path class="k" d="M100.18,274.34c.64-.35,1.31-.66,2-.92l1.11-.46,1.36-.45c1-.31,2.08-.71,3.35-1l2-.49c.7-.15,1.43-.27,2.18-.41,1.5-.31,3.14-.45,4.85-.67,3.73-.3,7.48-.3,11.21,0,3.72,.32,7.42,.93,11.05,1.8,1.66,.45,3.25,.85,4.68,1.35s2.78,.95,4,1.43,2.26,1,3.19,1.38c.8,.35,1.58,.73,2.34,1.16,.67,.32,1.31,.69,1.92,1.11-.69-.25-1.36-.54-2-.89-.65-.31-1.44-.68-2.39-1.06s-2-.86-3.21-1.27-2.52-.93-4-1.35-3-.85-4.66-1.28c-3.61-.83-7.26-1.41-10.95-1.74-3.69-.27-7.4-.27-11.09,0-1.7,.19-3.32,.31-4.81,.6-.74,.13-1.47,.23-2.16,.37l-2,.44c-1.27,.26-2.37,.62-3.36,.9l-1.36,.39-1.13,.41c-.69,.27-1.4,.49-2.12,.65Z"/><path class="k" d="M103.41,288.12c1.08-.91,2.24-1.72,3.45-2.44,2.18-1.45,5.22-3.4,8.6-5.53l6.8-4.21-.12,.24c-.08-1.86-.12-3.4-.13-4.47-.05-.57-.03-1.14,.07-1.7,.16,.55,.25,1.11,.26,1.68,.11,1.07,.24,2.61,.38,4.46v.15l-.14,.09-6.74,4.3c-3.38,2.13-6.47,4-8.72,5.37-1.18,.78-2.42,1.47-3.71,2.06Z"/><path class="k" d="M115.64,349c.34-.47,.73-.9,1.17-1.29,.48-.49,.98-.95,1.51-1.39,.62-.51,1.3-1.14,2.14-1.71,.89-.67,1.81-1.3,2.77-1.87,1-.66,2.17-1.24,3.37-1.87,2.68-1.3,5.48-2.34,8.35-3.12,2.9-.74,5.87-1.2,8.86-1.39,1.39,0,2.7-.11,3.93,0s2.37,.13,3.41,.25,2,.29,2.78,.43c.7,.11,1.39,.26,2.07,.45,.59,.12,1.16,.3,1.72,.53,0,.13-2.51-.57-6.62-.95-1-.09-2.16-.18-3.37-.17s-2.51,0-3.87,.1c-2.94,.22-5.86,.69-8.72,1.42-2.83,.76-5.59,1.76-8.24,3-1.2,.61-2.35,1.16-3.36,1.79s-1.95,1.21-2.78,1.78c-3.26,2.3-5.01,4.11-5.12,4.01Z"/><path class="k" d="M118.25,355.84c.35-.43,.73-.84,1.15-1.2,.39-.37,.87-.82,1.47-1.3s1.25-1.06,2.06-1.6c1.85-1.35,3.8-2.55,5.84-3.59,2.52-1.28,5.15-2.34,7.85-3.18,2.73-.81,5.53-1.41,8.36-1.77,2.32-.28,4.66-.38,7-.31,1,0,1.89,.1,2.68,.16,.67,.04,1.34,.12,2,.24,.57,.06,1.13,.17,1.68,.33,0,.13-2.44-.26-6.38-.28-2.3,0-4.61,.16-6.89,.46-5.57,.73-10.97,2.37-16,4.87-2.02,1.01-3.97,2.15-5.84,3.43-3.17,2.18-4.88,3.84-4.98,3.74Z"/><path class="k" d="M247.93,316.8c-.64-.12-1.26-.29-1.87-.52-.59-.19-1.31-.41-2.16-.63s-1.81-.53-2.9-.75c-2.53-.6-5.09-1.07-7.67-1.39-6.34-.78-12.75-.69-19.06,.27-2.57,.39-5.11,.93-7.62,1.6-1.08,.26-2,.58-2.87,.83s-1.56,.49-2.14,.7c-.6,.24-1.22,.43-1.85,.56,.56-.32,1.14-.58,1.75-.8,.57-.24,1.27-.53,2.11-.8s1.78-.64,2.86-.93c2.51-.74,5.07-1.33,7.66-1.75,3.18-.5,6.39-.79,9.61-.85,3.22-.03,6.44,.17,9.64,.58,2.6,.35,5.17,.86,7.71,1.53,1.09,.26,2,.59,2.89,.85s1.56,.52,2.13,.75c.61,.2,1.21,.45,1.78,.75Z"/><path class="k" d="M246.6,323.42c-.64-.06-1.28-.19-1.9-.37-1.2-.29-3-.66-5.14-1s-4.81-.73-7.73-1c-3.17-.24-6.36-.3-9.54-.2-3.18,.13-6.35,.43-9.49,.9-2.89,.46-5.47,1-7.62,1.55s-3.86,1-5,1.41c-.6,.23-1.22,.4-1.86,.51,.57-.3,1.16-.54,1.77-.74,1.64-.62,3.31-1.16,5-1.62,2.51-.71,5.06-1.27,7.64-1.7,3.17-.52,6.37-.85,9.58-1,3.21-.1,6.42-.02,9.62,.26,2.6,.24,5.2,.61,7.76,1.12,2.19,.44,3.94,.88,5.12,1.25,.61,.16,1.21,.37,1.79,.63Z"/><path class="h" d="M251.32,279.94c-8-6-19.68-7.07-29.29-3.81s-17.43,10.08-23.3,17.88l-1.84-5.12c5.87-7.8,14.59-15.07,24.2-18.32s21.71-2.22,29.67,3.76c.37,1.85,.56,3.73,.56,5.61Z"/><g class="j"><path d="M102.32,273.49c.67,1.49,3.72,2.38,5.78,1.95,2.61-.55,6.13-2.76,8.2-3.1,12-1.93,19.89,4.92,34.33,5.26,.28,0,.58,.15,.83,0,.31-.2,.4-.62,.2-.93l-.02-.02c-.23-.3-.53-.53-.88-.67-14.59-7.42-32.49-7.66-48.44-2.51"/></g><g class="j"><path d="M194.82,280.08c7.29-5.1,12-13.24,20.2-17,7-3.23,15.7-2.74,22.19-6.83-17.07,.63-33.56,9.43-42.79,22.82"/></g><path class="k" d="M200.18,384.42c11.76,6,26.5,5.32,37.84-1.15,1.39-.9,1.78-2.76,.88-4.15-.05-.07-.1-.14-.15-.21-1.17-1.37-3.16-1.66-4.67-.68-9.42,5.38-21.61,5.36-31.22,.48-1.66-.69-3.57,0-4.41,1.6-.78,1.66,.14,3.3,1.73,4.11h0Z"/><path class="k" d="M135.5,405.24c10.45-2.88,21.02-5.32,31.73-7.31,1.75-.17,3.05-1.7,2.93-3.46-.31-1.76-1.94-2.96-3.71-2.73-11.25,2.1-22.39,4.66-33.4,7.69-1.61,.55-2.47,2.3-1.92,3.91,.01,.03,.02,.06,.03,.09,.78,1.61,2.65,2.37,4.34,1.77v.04Z"/><path class="g" d="M244.29,329.61s6.93,8.23,6.24,11.88-8.95,29.7-8.95,29.7l-5.21,3.1,7.92-44.68Z"/><path class="k" d="M236.33,373.81c-.19,0,1.88-10.67,4.64-23.75s5.13-23.64,5.32-23.64-1.89,10.66-4.64,23.75-5.15,23.67-5.32,23.64Z"/><path class="g" d="M117.7,368.75c-.59-1.59-.04-3.37,1.33-4.36,3.83-2.9,11.32-7.93,13.29-6.16s6.61,19.79,8.37,27.05c.4,1.82-.57,3.67-2.3,4.37l-7.47,3.28c-1.78,.81-3.88,.02-4.69-1.76-.01-.02-.02-.05-.03-.07l-8.5-22.35Z"/><path class="k" d="M117.7,368.75c.16,.26,.29,.54,.39,.83,.26,.62,.59,1.43,1,2.44,.86,2.19,2.07,5.25,3.54,9,.74,1.91,1.55,4,2.41,6.23,.44,1.12,.88,2.28,1.34,3.47,.38,1.22,1.46,2.09,2.74,2.2,.67,.06,1.34-.07,1.93-.38l2-.89,4.16-1.84c.71-.24,1.38-.57,2-1,.54-.45,.94-1.05,1.13-1.73,.18-.69,.16-1.41-.06-2.09-.18-.74-.37-1.49-.55-2.24-1.5-6-3-11.73-4.56-16.87-.66-2.44-1.58-4.8-2.73-7.05-.52-1-2-.66-3-.34-1.03,.37-2.04,.82-3,1.35-1.87,1-3.47,2.06-4.87,3l-1.91,1.34c-.54,.34-1.02,.78-1.4,1.29-.49,.71-.72,1.56-.66,2.42,.06,.58,.18,.88,.15,.89-.15-.27-.25-.57-.29-.88-.13-.9,.08-1.81,.57-2.57,.38-.55,.86-1.02,1.42-1.39,.57-.44,1.2-.9,1.89-1.39,1.56-1.12,3.18-2.16,4.85-3.1,.99-.57,2.03-1.04,3.1-1.43,.59-.22,1.22-.35,1.85-.39,.34,0,.68,.06,1,.19,.31,.16,.58,.41,.76,.71,1.21,2.29,2.17,4.69,2.87,7.18,1.61,5.15,3.12,10.87,4.62,16.89,.18,.76,.37,1.5,.55,2.25,.23,.78,.23,1.61,0,2.39-.23,.79-.7,1.49-1.34,2-.32,.27-.68,.5-1.06,.67l-1.04,.51-4.16,1.82-2,.88c-.7,.35-1.49,.5-2.28,.43-1.51-.14-2.78-1.17-3.24-2.61l-1.32-3.52c-.84-2.25-1.62-4.33-2.33-6.26-1.39-3.77-2.52-6.86-3.34-9.07l-.87-2.47c-.11-.28-.2-.57-.26-.87Z"/><path class="k" d="M249.34,280.36c-.72-.09-1.44-.23-2.14-.41-1.94-.4-3.89-.7-5.86-.89-6.48-.64-13.03-.05-19.3,1.73-8.03,2.35-15.34,6.7-21.24,12.63-.47,.53-.98,1.02-1.52,1.47,0,0,.09-.17,.31-.45s.54-.69,1-1.19c1.29-1.43,2.69-2.77,4.17-4,5.01-4.14,10.82-7.2,17.07-9,6.36-1.81,13.01-2.34,19.57-1.56,1.98,.23,3.93,.6,5.86,1.09,.69,.17,1.2,.35,1.55,.45,.18,.02,.36,.06,.53,.13Z"/><path class="k" d="M250.89,287.42c-.7-.03-1.39-.11-2.08-.25-.66-.11-1.48-.23-2.43-.33s-2-.27-3.21-.34c-2.8-.25-5.61-.35-8.42-.31-6.87,.1-13.7,1.07-20.33,2.89-2.68,.75-5.33,1.63-7.92,2.64-1.12,.4-2.09,.86-3,1.22s-1.61,.7-2.21,1c-.61,.32-1.25,.6-1.9,.82,.56-.38,1.15-.72,1.77-1,.58-.32,1.3-.7,2.17-1.09s1.82-.89,2.93-1.32c2.59-1.09,5.25-2.02,7.95-2.79,6.67-1.92,13.56-2.9,20.5-2.92,2.83-.02,5.66,.13,8.48,.45,1.2,.1,2.28,.3,3.22,.44s1.76,.29,2.42,.44c.7,.09,1.39,.24,2.06,.45Z"/><path class="k" d="M107.77,316.42c.51-.35,1.05-.66,1.62-.92,.65-.36,1.31-.68,2-.95,.79-.34,1.67-.76,2.7-1.11,2.39-.89,4.84-1.6,7.34-2.12,6.17-1.28,12.51-1.47,18.74-.55,2.53,.38,5.02,.94,7.47,1.68,1,.29,2,.66,2.77,.95,.68,.24,1.35,.52,2,.83,.58,.23,1.15,.5,1.68,.83-.06,.12-2.48-1-6.63-2.17-2.44-.68-4.92-1.19-7.42-1.53-6.15-.84-12.41-.65-18.5,.55-2.48,.5-4.92,1.17-7.3,2-4.06,1.39-6.4,2.66-6.47,2.51Z"/><path class="k" d="M154.5,316.85c-.6,.08-1.2,.1-1.8,.06h-4.9c-4.13,0-9.84,.21-16.12,.74s-11.93,1.33-16,2l-4.82,.82c-.59,.13-1.18,.21-1.78,.24,.56-.22,1.14-.39,1.73-.49,1.12-.28,2.75-.63,4.78-1,10.62-2.01,21.41-2.92,32.22-2.73,2.07,0,3.74,.11,4.9,.19,.6,0,1.2,.06,1.79,.17Z"/><path class="h" d="M108.5,189.84s27.74,7.23,58.14,6c30.4-1.23,42.31-7.14,42.31-7.14l1.8,10.22s-36.94,14.34-103.51,.78c.02-.02-.54-7.65,1.26-9.86Z"/><polygon class="g" points="120.21 192.1 119.48 203 126.52 203.96 127.67 191.91 120.21 192.1"/><polygon class="g" points="191.08 192.63 193.81 203.25 200.85 202.24 198.15 190.4 191.08 192.63"/><polygon class="k" points="146.35 205.87 136.86 204.85 138.11 194.75 147.6 195.77 146.35 205.87"/><g class="j"><path d="M141.92,179.63c-9.76,5.39-23.29,11-33,16.44l-1,6.45c8.22-2.75,18.28-6.36,25.42-11.27,2-1.38,5.86-4,7.32-6s2.04-3.31,1.26-5.62Z"/></g><path class="g" d="M88.4,167.94c-7.2,3.52-15.09,9.08-14.15,18.19,.85,8.3,9,11.77,16.38,12.42,18.78,1.65,37.39-7.73,52.88-17.27,5-3.08,.41-11-4.62-7.9-11.52,7.1-23.88,13.6-37.44,15.59-4.64,.68-12.47,1.82-16.57-1.38-5.94-4.64,5.54-10,8.74-11.61l-.12-9.8c-1.74,.45-3.45,1.04-5.1,1.76h0Z"/><path class="k" d="M88.4,167.94c.4-.22,.82-.42,1.25-.58,1.25-.49,2.53-.91,3.83-1.26h.1v.11c0,2.45,.11,5.75,.18,9.8v.08h-.08c-2.23,1.05-4.38,2.26-6.42,3.64-1.14,.77-2.16,1.71-3,2.8-.44,.56-.73,1.23-.83,1.93-.06,.72,.17,1.44,.63,2,1.04,1.19,2.42,2.03,3.95,2.4,1.63,.43,3.31,.65,5,.65,3.64-.09,7.27-.48,10.84-1.18,8.03-1.67,15.78-4.48,23-8.36,3.87-2,7.74-4.25,11.63-6.63,.25-.16,.51-.3,.78-.42,.26-.16,.54-.27,.84-.33,.59-.18,1.21-.22,1.81-.12,1.23,.24,2.31,.96,3,2,.73,1,1.08,2.23,1,3.46-.09,1.26-.72,2.43-1.72,3.2-5.91,3.81-12.07,7.21-18.44,10.17-3.1,1.4-6.18,2.71-9.28,3.75-1.54,.57-3.1,1-4.63,1.47s-3.08,.84-4.61,1.13c-5.8,1.28-11.77,1.62-17.68,1-2.68-.31-5.3-1.06-7.74-2.22-2.28-1.05-4.26-2.68-5.72-4.72-1.26-1.91-1.95-4.13-2-6.42-.09-2.03,.29-4.05,1.11-5.91,1.4-2.92,3.53-5.43,6.18-7.29,1.62-1.22,3.35-2.29,5.16-3.21,.62-.33,1.1-.55,1.42-.71l.49-.22s-.15,.1-.47,.27-.78,.4-1.39,.75c-1.78,.96-3.48,2.05-5.09,3.28-2.58,1.87-4.64,4.37-6,7.25-.77,1.83-1.11,3.8-1,5.78,.07,2.22,.76,4.38,2,6.22,1.44,1.98,3.36,3.55,5.59,4.57,2.4,1.13,4.98,1.86,7.62,2.15,5.86,.59,11.78,.23,17.53-1.06,12.17-2.61,24.67-8.81,36.73-16.46,.89-.68,1.45-1.7,1.53-2.82,.07-1.12-.25-2.23-.92-3.13-.62-.91-1.58-1.53-2.66-1.74-.53-.09-1.08-.05-1.6,.1-.26,.06-.52,.16-.75,.3-.25,.11-.5,.25-.73,.4-3.9,2.38-7.78,4.64-11.67,6.63-7.27,3.9-15.07,6.71-23.15,8.36-3.61,.7-7.27,1.09-10.94,1.15-1.72,0-3.43-.23-5.09-.68-1.61-.4-3.05-1.29-4.13-2.55-.51-.64-.76-1.45-.69-2.27,.12-.76,.43-1.49,.9-2.1,.89-1.11,1.94-2.08,3.13-2.87,2.07-1.37,4.24-2.58,6.49-3.61l-.07,.12c0-4.05-.05-7.35-.07-9.8l.1,.08c-1.71,.45-3,.87-3.84,1.18-.43,.16-.74,.29-1,.38-.13,.06-.27,.1-.41,.11Z"/></g></g></g></svg>