<?xml version="1.0" encoding="UTF-8"?><svg xmlns="http://www.w3.org/2000/svg" viewBox="0 0 228.52 346.51"><defs><style>.e{fill:#fff;}.f{fill:#f5f5f5;}.g{fill:#455a64;}.h{fill:#ff725e;}.i{opacity:.3;}.j{fill:#7f6358;}.k{fill:#9b7564;}.l{fill:#263238;}</style></defs><g id="a"/><g id="b"><g id="c"><g id="d"><path class="k" d="M71.75,209.05l-.14,53.74-23.75-4.88-20-4.18s27.38,54,57.16,54,33.63-44.93,33.63-44.93l1.77-53.75h-48.67Z"/><path class="l" d="M195.12,70.42c-2.18,1.24-5.18-.37-6.18-2.69s-.54-5,.22-7.44,1.82-4.78,2-7.31c.18-4.74-2.76-9.05-7.24-10.6,4.3-3.41,4.65-10.72,.7-14.53-1.85-1.78-4.31-2.75-6.46-4.15-1.22-.81-2.36-1.74-3.4-2.77,1.92,.47,3.92,.53,5.86,.18,3.17-.69,5.76-2.96,6.88-6,1.04-3.09,.23-6.51-2.08-8.81-2.39-2.24-5.92-2.76-8.86-1.32-2.78,1.47-4.3,4.49-5.65,7.33l-1.26,2.63c-3.91-5.18-7.59-10.53-13.62-12.35-5.47-1.65-11.35,.19-17.05-.22-4.15-.31-8.13-1.8-12.27-2.26s-8.85,.43-11.29,3.8c-1.44,2-1.89,4.54-3.34,6.51-3,4.06-9.46,4.61-11.92,9-2,3.58-.46,8.1-1.32,12.11-.93,4.36-4.53,7.55-7.47,10.9s-5.51,7.95-3.86,12.09c1.46,3.65,5.71,5.61,7.09,9.28,1,2.68,.28,5.65,.23,8.51s1.09,6.26,3.88,6.91l31.73,8.38c10.93,4.44,22.2,9,34,8.94s24.39-5.68,29-16.52c-1.72-.06-3.34-.78-4.55-2,3.12-1.46,5.41-4.25,6.23-7.6Z"/><path class="l" d="M169.11,80.37c2.62-8,5.2-16.15,6.39-24.53s.94-17.12-2-25c-.44-1.2-4.25-9.27-5.53-9.14-.91,.09,1.43,7.61,1,8.41-4.4,7.56-5.6,16.65-4.89,25.38,.76,8.47,2.46,16.83,5.07,24.93"/><path class="k" d="M141.09,150.71c13.12-.28,28-29,28-29l.85-73.66c.68-21.21-11.09-39.29-32.31-39.39l-2,.1c-19.73,1.08-35.35,17.1-35.91,36.86-.49,18.39-.81,38.72-.16,48.54,1.34,20.32,21.85,22.39,21.85,22.39,0,0,.12,4.72,.18,10.7,.14,13.42,14.19,23.88,19.45,23.43l.05,.03Z"/><path class="j" d="M121.46,116.58s12.86,.07,26.06-9.25c0,0-5.66,15.14-26.05,14.4v-5.15Z"/><path class="l" d="M108.55,61.61c.07,1.59,1.41,2.83,3,2.78,1.53,.04,2.81-1.17,2.85-2.71v-.06c-.06-1.6-1.4-2.84-3-2.79-1.53-.04-2.81,1.17-2.85,2.71,0,.02,0,.05,0,.07Z"/><path class="l" d="M104.57,53.86c.38,.36,2.49-1.39,5.62-1.55s5.5,1.29,5.82,.88c.15-.17-.25-.84-1.29-1.51-1.4-.87-3.04-1.28-4.68-1.17-1.63,.08-3.18,.68-4.45,1.7-.92,.84-1.21,1.49-1.02,1.65Z"/><path class="l" d="M136.7,60.86c.07,1.59,1.41,2.83,3,2.78,1.53,.04,2.81-1.17,2.85-2.71,0-.02,0-.05,0-.07-.07-1.57-1.38-2.8-2.95-2.78-1.54-.06-2.84,1.14-2.9,2.68,0,.03,0,.07,0,.1Z"/><path class="l" d="M135.25,53.48c.38,.36,2.5-1.38,5.62-1.54s5.5,1.28,5.82,.88c.16-.18-.24-.84-1.29-1.52-1.4-.86-3.04-1.27-4.68-1.17-1.63,.08-3.18,.68-4.45,1.7-.91,.79-1.2,1.49-1.02,1.65Z"/><path class="l" d="M125.33,78.1c0-.18-2-.41-5.13-.64-.8,0-1.56-.16-1.73-.7-.11-.82,.03-1.65,.41-2.39,.67-2,1.33-4.07,2-6.21,2.82-8.82,4.81-16.07,4.45-16.18s-2.93,7-5.74,15.79c-.67,2.17-1.32,4.25-1.93,6.23-.45,.99-.54,2.11-.25,3.16,.27,.56,.78,.96,1.38,1.09,.45,.1,.9,.14,1.36,.12,3.21,0,5.17-.09,5.18-.27Z"/><path class="l" d="M134.64,79.77c-.51,0-.33,3.39-3.11,5.95s-6.4,2.39-6.4,2.86c0,.22,.84,.62,2.36,.58,1.99-.08,3.89-.86,5.36-2.2,1.42-1.29,2.27-3.09,2.39-5,.06-1.4-.37-2.22-.6-2.19Z"/><path class="l" d="M134.74,40.79c.36,.84,3.46,.27,7.15,.51s6.71,1.09,7.15,.3c.2-.38-.36-1.15-1.6-1.91-3.34-1.87-7.36-2.09-10.89-.61-1.32,.61-1.96,1.32-1.81,1.71Z"/><path class="l" d="M105.3,43.4c.59,.68,2.71-.17,5.29-.34s4.81,.22,5.27-.55c.21-.37-.18-1.07-1.17-1.69-2.72-1.5-6.08-1.22-8.51,.72-.88,.78-1.14,1.51-.88,1.86Z"/><path class="k" d="M169.09,63.23c.34-.17,13.75-4.88,14.06,9s-13.75,11.35-13.78,11-.28-20-.28-20Z"/><path class="j" d="M173.51,77.87c.06,0,.25,.16,.66,.34,.58,.23,1.23,.23,1.81,0,1.46-.57,2.65-2.94,2.67-5.45,0-1.2-.26-2.38-.76-3.46-.28-.87-.98-1.55-1.86-1.82-.58-.14-1.18,.16-1.42,.7-.18,.39-.08,.67-.16,.69s-.3-.23-.2-.8c.07-.35,.26-.66,.53-.89,.37-.3,.85-.44,1.33-.38,1.17,.2,2.14,1,2.58,2.1,.62,1.19,.94,2.52,.93,3.87,0,2.81-1.41,5.46-3.41,6.09-.75,.24-1.57,.12-2.23-.32-.44-.34-.52-.65-.47-.67Z"/><path class="l" d="M108.49,22.46c-2.27-1.21,4.4-8.6,9.91-11.19,8.32-3.9,21.08-6.4,28.82-4.31,9.33,2.51,17.11,7,21.89,15.44s6.66,18.23,6.51,27.89c-.05,2.95-.31,6-1.86,8.54-1.9,3.1-5.61,5.09-5.39,9.34,.13,1.55-.38,3.09-1.39,4.27-2.52,2.74-5.67,.23-7.13-2.3-3.14-5.42-3.56-11.93-3.91-18.17-.25-4.44-.49-9,.71-13.26,.65-2.33,1.72-4.54,2.24-6.9s.42-5-1.08-6.95c-.34-.41-.73-.79-1.14-1.13-4-3.4-9.52-4.37-14.45-2.56-7.81,2.88-21.15,7.2-24.68,4.58-5.08-3.77-6.32-6.25-6.32-6.25l-2.73,2.96Z"/><path class="l" d="M146.47,5.05c-7.68-2.46-16.4-2.21-23.51,1.6-3.78,2-7.18,5.22-8.28,9.35s.72,9.2,4.7,10.76l.28,.17c6,1.92,9.82,1.08,15.72-1.05,5-1.79,9.36-4.92,14.33-6.69,5.33-1.87,11.09-2.11,16.56-.69-5.4-5.98-12.11-10.96-19.8-13.45Z"/><path class="g" d="M172.94,18.85c-.12,.1-1.24-1.23-3.5-2.8-1.32-.92-2.74-1.68-4.23-2.26-1.79-.75-3.72-1.1-5.66-1-3.55,.39-6.91,1.78-9.71,4-2.16,1.71-3.16,3.15-3.29,3.05s.15-.43,.61-1.07c.66-.91,1.41-1.74,2.25-2.48,2.81-2.48,6.33-4.03,10.06-4.43,2.08-.12,4.15,.25,6.06,1.08,1.54,.65,2.99,1.5,4.3,2.53,2.25,1.81,3.21,3.32,3.11,3.38Z"/><path class="g" d="M174.35,23.78c-.12,1.39-.47,2.74-1.06,4-2.5,6.24-7.1,11.42-13,14.65-1.17,.73-2.47,1.24-3.82,1.52-.17-.27,5.85-2.55,10.9-8.33s6.69-11.97,6.98-11.84Z"/><path class="g" d="M180.02,26.05c.11,.52,.13,1.05,.05,1.58-.07,1.44-.27,2.87-.6,4.28-2.17,9.52-8.97,17.32-18.1,20.77-1.35,.51-2.74,.91-4.16,1.18-.51,.15-1.05,.2-1.58,.16,0-.16,2.19-.54,5.49-2,8.72-3.67,15.26-11.18,17.71-20.32,.94-3.42,1.02-5.65,1.19-5.65Z"/><path class="g" d="M130.52,3.8c0,.16-1.45,.5-3.69,1.39-5.88,2.34-10.88,6.46-14.29,11.78-.63,1.15-1.32,2.27-2.07,3.35,.27-1.31,.77-2.56,1.5-3.69,1.6-2.82,3.7-5.33,6.2-7.39,2.5-2.06,5.36-3.64,8.44-4.66,1.25-.49,2.57-.76,3.91-.78Z"/><path class="g" d="M184.39,5.55c.23,0-.38,4-3.53,7.75s-7,5.05-7,4.82,3.37-1.86,6.31-5.42,3.94-7.24,4.22-7.15Z"/><path class="k" d="M36.4,254.18l8.26-5.07c1.4-.85,3.01-1.31,4.65-1.31h16l16.52,15.05,4.93,2.46-1.84,26-10.74-1.32s-22.93,1-25.15-.49-5.43-6.17-5.43-6.17c0,0-12.57-4.07-13.8-5.17-4.67-4.19-2.79-5.19-2.79-5.19l-2.15-1c-.4,.76-3.53-4.34-3.2-6.9,.19-1.49-.25-1.48-.25-1.48-2.11-1.21-3.57-3.29-4-5.69-.23-1.52,6-.43,6-.43l15.53,.21-2.54-3.5Z"/><path class="g" d="M50.21,257.33l-14.61-19.89c-1.07-1.47-2.78-2.33-4.6-2.33H2.12c-1.16,0-2.1,.94-2.1,2.1H.02c0,.5,.19,.99,.51,1.37l16.55,19.2h0l33.13-.45Z"/><path class="j" d="M43.13,265.48c-1.06,.29-2.16,.43-3.26,.43-5.29,.31-10.6-.15-15.76-1.36-1.09-.2-2.14-.53-3.14-1,1.09,.07,2.18,.24,3.24,.49,2,.35,4.73,.78,7.79,1s5.84,.32,7.85,.31c1.1-.05,2.19-.01,3.28,.13Z"/><path class="j" d="M47.28,274.19c-1.06,.28-2.16,.43-3.26,.43-2.64,.16-5.29,.12-7.93-.11-2.64-.23-5.26-.64-7.84-1.25-1.08-.19-2.13-.53-3.13-1,1.09,.07,2.18,.24,3.24,.49,2,.35,4.73,.78,7.79,1s5.84,.32,7.85,.31c1.1-.05,2.19-.01,3.28,.13Z"/><path class="j" d="M17.45,257.9c.12,.62,.28,1.22,.48,1.82,.66,1.65,1.93,2.97,3.54,3.7l.11,.05v.12c-.04,1.76,.35,3.5,1.13,5.08,.96,1.94,2.55,3.5,4.51,4.42l.27,.12-.13,.25c-.3,.63-.3,1.37,0,2,.34,.67,.83,1.26,1.42,1.73,1.32,1.02,2.77,1.85,4.32,2.48,3.42,1.42,6.97,2.53,10.59,3.32h.14l.07,.12c.93,1.34,2.02,2.57,3.25,3.64,1.18,1.17,2.64,2.04,4.24,2.51,1.23,.3,2.5,.43,3.77,.38l3.8,.1,7.33,.2,13.2,.37h.05l15.73,3.21,4.37,.94,1.14,.27c.14,.02,.27,.06,.39,.12-.13,.02-.27,.02-.4,0l-1.16-.18-4.41-.78-15.78-3h.05l-13.2-.28-7.32-.17-3.81-.09c-1.33,.04-2.65-.1-3.94-.42-1.7-.5-3.26-1.41-4.52-2.66-1.27-1.11-2.4-2.39-3.35-3.79l.21,.15c-3.66-.8-7.24-1.95-10.69-3.41-1.59-.66-3.09-1.54-4.45-2.6-.67-.54-1.2-1.22-1.57-2-.35-.78-.33-1.68,.06-2.44l.14,.37c-2.06-.99-3.73-2.66-4.72-4.72-.78-1.65-1.15-3.47-1.07-5.3l.11,.17c-1.69-.79-2.98-2.23-3.58-4-.22-.58-.32-1.19-.32-1.8Z"/><path class="j" d="M52.01,281.84c.08,.16-1.86,1.15-4.49,1.5s-4.75-.09-4.72-.26,2.11-.09,4.63-.44,4.51-.99,4.58-.8Z"/><path class="j" d="M59.43,257.3c0,.19-3.17,.46-7.11,.61s-7.13,.1-7.13-.1,3.17-.46,7.11-.61,7.13-.1,7.13,.1Z"/><path class="j" d="M86.45,263.18s-.3,.29-1,.4c-1,.11-2.02-.12-2.88-.64-1.21-.79-2.34-1.69-3.37-2.7l-3.94-3.45-7.2-6.19c-1.05-.8-2.02-1.69-2.92-2.65,1.15,.65,2.23,1.41,3.23,2.27,1.93,1.48,4.55,3.6,7.36,6,1.4,1.22,2.72,2.4,3.9,3.49,.99,1.01,2.05,1.93,3.19,2.76,.77,.51,1.67,.79,2.6,.8,.66,.01,1.01-.15,1.03-.09Z"/><path class="l" d="M47.13,257.76c-.14-.13-.28-.27-.39-.43l-1-1.28-3.8-4.79-5.48-7.14-3.22-4.22c-.57-.69-1.32-1.21-2.16-1.51-.43-.15-.88-.24-1.34-.27h-1.44l-20-.08-6.07-.08H.58c-.19,0-.39-.01-.58-.05,.19-.04,.39-.06,.58-.05l1.65-.05,6.07-.09,20-.07h1.48c.5,.03,1,.14,1.47,.3,.93,.33,1.75,.91,2.38,1.68l3.21,4.25,5.39,7.21c1.49,2,2.71,3.67,3.6,4.89,.39,.54,.7,1,1,1.34,.12,.13,.22,.28,.3,.44Z"/><path class="f" d="M15.72,240.94c.52-.4,1.27-.3,1.67,.22,.4,.52,.3,1.27-.22,1.67-.51,.39-1.25,.31-1.65-.2-.39-.51-.32-1.23,.16-1.65"/><path class="h" d="M170.52,115.92l40.68,23.91,7.48,132,9.72,74.68H82.2s1.61-90.89,2.11-118.38c.36-19.27-.16-56.62,6.36-79.59,2.78-9.79,30-22.44,30-22.44,14.91,13.17,31.58,9.24,49.85-10.18Z"/><path class="e" d="M224.1,313.51c0,.14-31.56,.26-70.5,.26s-70.5-.12-70.5-.26,31.56-.26,70.5-.26,70.5,.11,70.5,.26Z"/><g class="i"><path d="M83.01,291.05c11.32,9.49,28.91,14.63,43.39,17.56s29.27,4,43.79,6.66c10.15,1.89,20.8,4.56,30.59,1.26,9.95-3.53,16.93-12.55,17.86-23.07,.15-.7-.01-1.43-.44-2-.59-.45-1.34-.63-2.07-.5-43.71,1.94-90,1.67-133.12,.06"/></g><path class="k" d="M75.27,263.69h102.16l.5-53.83,47.14-6.08s.21,54.67,.21,72.6c0,21.52-18.6,36.48-34.22,34.18s-115.79-21-115.79-21v-25.87Z"/><path class="h" d="M228.34,214.96l-54.94,5.71v-64.46s5.4-21.78,24.38-20.87,30.16,21.44,30.56,40.27,0,39.35,0,39.35Z"/><path class="h" d="M96.48,140.98s-17.61,11.59-22.33,24.38c-4.95,13.41-11.9,56.85-11.9,56.85h24.69l9.54-81.23Z"/><path class="l" d="M172.94,158.77c.07,.78,.07,1.57,0,2.35-.05,1.63-.12,3.79-.2,6.41-.16,5.4-.33,12.87-.31,21.12s.24,15.72,.45,21.12c.1,2.62,.18,4.78,.24,6.41,.06,.78,.06,1.57,0,2.35-.16-.77-.25-1.55-.28-2.34-.14-1.5-.31-3.69-.47-6.39-.33-5.41-.62-12.88-.65-21.15s.22-15.74,.52-21.15c.14-2.7,.29-4.88,.42-6.39,.03-.79,.13-1.57,.28-2.34Z"/><path class="l" d="M200.6,136.38c0,.14-1.84-.35-4.82-.3-7.91,.08-15.12,4.51-18.78,11.52-1.39,2.63-1.78,4.47-1.91,4.44,0-.44,.08-.88,.22-1.3,.3-1.16,.72-2.29,1.25-3.36,3.53-7.37,11.05-11.99,19.22-11.8,1.2,.02,2.4,.16,3.57,.41,.43,.06,.86,.2,1.25,.39Z"/><path class="l" d="M85.17,171.34c.05,.24,.07,.48,.07,.73,0,.56,0,1.25,.06,2.09,0,1.81,.06,4.43,.06,7.67,0,6.48-.1,15.43-.29,25.31s-.38,18.73-.51,25.3c-.06,3.16-.11,5.76-.15,7.67,0,.84-.06,1.53-.08,2.09,.01,.24-.01,.48-.07,.72-.05-.24-.08-.48-.07-.72,0-.56,0-1.25-.06-2.09,0-1.81-.06-4.43-.06-7.67,0-6.48,.1-15.43,.29-25.32s.37-18.73,.5-25.29c.07-3.17,.12-5.76,.16-7.67,0-.84,.06-1.53,.07-2.09,0-.25,.02-.49,.08-.73Z"/><path class="e" d="M84.54,192.93c-2.78,.24-5.57,.3-8.36,.19-2.79,.06-5.58-.05-8.36-.34,2.78-.24,5.57-.3,8.36-.19,2.79-.07,5.58,.05,8.36,.34Z"/><path class="e" d="M172,178.05c0,.14-19,.26-42.35,.26s-42.37-.12-42.37-.26,19-.26,42.37-.26,42.35,.09,42.35,.26Z"/><path class="e" d="M227.15,169.23c-.19,.02-.37,.02-.56,0l-1.58-.13-5.8-.5c-4.91-.41-11.69-.86-19.19-1.07s-14.3-.12-19.22,0l-5.83,.18h-1.58c-.19,.03-.37,.03-.56,0,.18-.05,.36-.07,.55-.08l1.58-.14c1.38-.11,3.36-.23,5.83-.35,4.92-.23,11.72-.36,19.24-.16s14.31,.72,19.21,1.22c2.45,.25,4.43,.48,5.79,.67l1.57,.22c.19,.02,.37,.07,.55,.14Z"/><path class="e" d="M227.67,207.42c0,.15-12.41,0-27.7-.36s-27.71-.75-27.7-.89,12.4,0,27.71,.37,27.69,.74,27.69,.88Z"/><path class="e" d="M177.76,145.94c0,.15-19.58,.26-43.73,.26s-43.73-.11-43.73-.26,19.58-.26,43.73-.26,43.73,.12,43.73,.26Z"/><path class="e" d="M172.28,218.6c0,.14-19.64,.26-43.87,.26s-43.87-.12-43.87-.26,19.64-.26,43.87-.26,43.87,.11,43.87,.26Z"/><path class="e" d="M178.58,250.68c0,.14-21.36,.26-47.7,.26s-47.71-.12-47.71-.26,21.36-.26,47.71-.26,47.7,.11,47.7,.26Z"/><path class="e" d="M226.87,343.18c0,.14-32.21,.26-71.93,.26s-71.93-.12-71.93-.26,32.2-.26,71.93-.26,71.93,.13,71.93,.26Z"/><g class="i"><path d="M172.73,221.28c-.64-12.74-.18-24.66-.83-37.39-4.34,18.68-6.39,37.82-6.1,57,.07,4.55,.29,9.18,1.76,13.49s5.54,8,9.7,9.84l.4-43.49c-1.87,.14-3.05,.46-4.93,.55Z"/></g></g></g></g></svg>